# Blender v2.68 (sub 0) OBJ File: 'hockey.blend'
# www.blender.org
mtllib hockeypuck.mtl
o Cylinder.002
v 0.029360 0.038982 -1.014172
v 0.029360 0.450586 -1.014172
v 0.224450 0.038982 -0.994958
v 0.224450 0.450586 -0.994958
v 0.412043 0.038982 -0.938052
v 0.412043 0.450586 -0.938052
v 0.584930 0.038982 -0.845642
v 0.584930 0.450586 -0.845642
v 0.736467 0.038982 -0.721279
v 0.736467 0.450586 -0.721279
v 0.860829 0.038982 -0.569743
v 0.860829 0.450586 -0.569743
v 0.953239 0.038982 -0.396856
v 0.953239 0.450586 -0.396856
v 1.010145 0.038982 -0.209263
v 1.010145 0.450586 -0.209263
v 1.029360 0.038982 -0.014173
v 1.029360 0.450586 -0.014173
v 1.010145 0.038982 0.180918
v 1.010145 0.450586 0.180918
v 0.953239 0.038982 0.368511
v 0.953239 0.450586 0.368511
v 0.860829 0.038982 0.541398
v 0.860829 0.450586 0.541398
v 0.736466 0.038982 0.692934
v 0.736466 0.450586 0.692934
v 0.584930 0.038982 0.817297
v 0.584930 0.450586 0.817297
v 0.412043 0.038982 0.909707
v 0.412043 0.450586 0.909707
v 0.224450 0.038982 0.966613
v 0.224450 0.450586 0.966613
v 0.029359 0.038982 0.985827
v 0.029359 0.450586 0.985827
v -0.165731 0.038982 0.966613
v -0.165731 0.450586 0.966613
v -0.353324 0.038982 0.909707
v -0.353324 0.450586 0.909707
v -0.526211 0.038982 0.817297
v -0.526211 0.450586 0.817297
v -0.677748 0.038982 0.692934
v -0.677748 0.450586 0.692934
v -0.802110 0.038982 0.541397
v -0.802110 0.450586 0.541397
v -0.894520 0.038982 0.368510
v -0.894520 0.450586 0.368510
v -0.951426 0.038982 0.180917
v -0.951426 0.450586 0.180917
v -0.970640 0.038982 -0.014173
v -0.970640 0.450586 -0.014173
v -0.951425 0.038982 -0.209264
v -0.951425 0.450586 -0.209264
v -0.894519 0.038982 -0.396857
v -0.894519 0.450586 -0.396857
v -0.802109 0.038982 -0.569744
v -0.802109 0.450586 -0.569744
v -0.677746 0.038982 -0.721280
v -0.677746 0.450586 -0.721280
v -0.526209 0.038982 -0.845643
v -0.526209 0.450586 -0.845643
v -0.353322 0.038982 -0.938053
v -0.353322 0.450586 -0.938053
v -0.165729 0.038982 -0.994958
v -0.165729 0.450586 -0.994958
vt 0.000000 0.000000
vt 1.000000 0.000000
vt 0.000000 1.000000
vt 0.500000 1.000000
vt 0.597545 0.990393
vt 0.402456 0.990393
vt 1.000000 1.000000
vt 0.691342 0.961940
vt 0.777785 0.915735
vt 0.853553 0.853553
vt 0.915735 0.777785
vt 0.961940 0.691342
vt 0.990393 0.597545
vt 1.000000 0.500000
vt 0.990393 0.402455
vt 0.961940 0.308658
vt 0.915735 0.222215
vt 0.853553 0.146447
vt 0.222215 0.084265
vt 0.402455 0.009607
vt 0.308658 0.038060
vt 0.500000 0.000000
vt 0.777785 0.084265
vt 0.691342 0.038060
vt 0.146446 0.146447
vt 0.308659 0.961940
vt 0.222215 0.915735
vt 0.597545 0.009607
vt 0.146447 0.853554
vt 0.084266 0.777786
vt 0.084265 0.222215
vt 0.038060 0.308659
vt 0.009607 0.402455
vt 0.000000 0.500000
vt 0.009607 0.597546
vt 0.038060 0.691342
vn 0.098017 0.000000 -0.995185
vn 0.290284 0.000000 -0.956940
vn 0.471397 0.000000 -0.881921
vn 0.634393 0.000000 -0.773011
vn 0.773011 0.000000 -0.634393
vn 0.881921 0.000000 -0.471397
vn 0.956940 0.000000 -0.290285
vn 0.995185 0.000000 -0.098017
vn 0.995185 0.000000 0.098017
vn 0.956940 0.000000 0.290285
vn 0.881922 0.000000 0.471396
vn 0.773010 0.000000 0.634394
vn 0.634394 0.000000 0.773010
vn 0.471396 0.000000 0.881922
vn 0.290285 0.000000 0.956940
vn 0.098017 0.000000 0.995185
vn -0.098017 0.000000 0.995185
vn -0.290285 0.000000 0.956940
vn -0.471397 0.000000 0.881921
vn -0.634394 0.000000 0.773009
vn -0.773011 0.000000 0.634393
vn -0.881922 0.000000 0.471396
vn -0.956941 0.000000 0.290284
vn -0.995185 0.000000 0.098015
vn -0.995185 -0.000000 -0.098017
vn -0.956940 -0.000000 -0.290286
vn -0.881921 -0.000000 -0.471398
vn -0.773010 -0.000000 -0.634394
vn -0.634392 -0.000000 -0.773012
vn -0.471395 -0.000000 -0.881922
vn -0.098016 -0.000000 -0.995185
vn -0.290283 -0.000000 -0.956941
vn 0.000000 -1.000000 -0.000000
vn -0.000000 1.000000 0.000000
usemtl Material.002
s off
f 1/1/1 2/2/1 3/3/1
f 3/1/2 4/2/2 5/3/2
f 5/1/3 6/2/3 7/3/3
f 7/1/4 8/2/4 9/3/4
f 9/1/5 10/2/5 11/3/5
f 11/1/6 12/2/6 13/3/6
f 13/1/7 14/2/7 15/3/7
f 15/1/8 16/2/8 17/3/8
f 17/1/9 18/2/9 19/3/9
f 19/1/10 20/2/10 21/3/10
f 21/1/11 22/2/11 23/3/11
f 23/1/12 24/2/12 25/3/12
f 25/1/13 26/2/13 27/3/13
f 27/1/14 28/2/14 29/3/14
f 29/1/15 30/2/15 31/3/15
f 31/1/16 32/2/16 33/3/16
f 33/1/17 34/2/17 35/3/17
f 35/1/18 36/2/18 37/3/18
f 37/1/19 38/2/19 39/3/19
f 39/1/20 40/2/20 41/3/20
f 41/1/21 42/2/21 43/3/21
f 43/1/22 44/2/22 45/3/22
f 45/1/23 46/2/23 47/3/23
f 47/1/24 48/2/24 49/3/24
f 49/1/25 50/2/25 51/3/25
f 51/1/26 52/2/26 53/3/26
f 53/1/27 54/2/27 55/3/27
f 55/1/28 56/2/28 57/3/28
f 57/1/29 58/2/29 59/3/29
f 59/1/30 60/2/30 61/3/30
f 63/1/31 64/2/31 1/3/31
f 61/1/32 62/2/32 63/3/32
f 1/4/33 3/5/33 63/6/33
f 6/4/34 4/5/34 8/6/34
f 2/2/1 4/7/1 3/3/1
f 4/2/2 6/7/2 5/3/2
f 6/2/3 8/7/3 7/3/3
f 8/2/4 10/7/4 9/3/4
f 10/2/5 12/7/5 11/3/5
f 12/2/6 14/7/6 13/3/6
f 14/2/7 16/7/7 15/3/7
f 16/2/8 18/7/8 17/3/8
f 18/2/9 20/7/9 19/3/9
f 20/2/10 22/7/10 21/3/10
f 22/2/11 24/7/11 23/3/11
f 24/2/12 26/7/12 25/3/12
f 26/2/13 28/7/13 27/3/13
f 28/2/14 30/7/14 29/3/14
f 30/2/15 32/7/15 31/3/15
f 32/2/16 34/7/16 33/3/16
f 34/2/17 36/7/17 35/3/17
f 36/2/18 38/7/18 37/3/18
f 38/2/19 40/7/19 39/3/19
f 40/2/20 42/7/20 41/3/20
f 42/2/21 44/7/21 43/3/21
f 44/2/22 46/7/22 45/3/22
f 46/2/23 48/7/23 47/3/23
f 48/2/24 50/7/24 49/3/24
f 50/2/25 52/7/25 51/3/25
f 52/2/26 54/7/26 53/3/26
f 54/2/27 56/7/27 55/3/27
f 56/2/28 58/7/28 57/3/28
f 58/2/29 60/7/29 59/3/29
f 60/2/30 62/7/30 61/3/30
f 64/2/31 2/7/31 1/3/31
f 62/2/32 64/7/32 63/3/32
f 3/5/33 5/8/33 63/6/33
f 5/8/33 7/9/33 63/6/33
f 7/9/33 9/10/33 63/6/33
f 9/10/33 11/11/33 63/6/33
f 11/11/33 13/12/33 63/6/33
f 13/12/33 15/13/33 63/6/33
f 15/13/33 17/14/33 63/6/33
f 17/14/33 19/15/33 63/6/33
f 19/15/33 21/16/33 63/6/33
f 21/16/33 23/17/33 63/6/33
f 23/17/33 25/18/33 63/6/33
f 39/19/33 35/20/33 37/21/33
f 39/19/33 33/22/33 35/20/33
f 25/18/33 27/23/33 29/24/33
f 63/6/33 25/18/33 29/24/33
f 41/25/33 33/22/33 39/19/33
f 61/26/33 63/6/33 59/27/33
f 63/6/33 29/24/33 59/27/33
f 29/24/33 31/28/33 33/22/33
f 59/27/33 29/24/33 33/22/33
f 57/29/33 59/27/33 33/22/33
f 55/30/33 57/29/33 33/22/33
f 43/31/33 33/22/33 41/25/33
f 45/32/33 33/22/33 43/31/33
f 47/33/33 33/22/33 45/32/33
f 49/34/33 33/22/33 47/33/33
f 51/35/33 53/36/33 49/34/33
f 53/36/33 55/30/33 33/22/33
f 49/34/33 53/36/33 33/22/33
f 4/5/34 2/8/34 8/6/34
f 2/8/34 64/9/34 8/6/34
f 64/9/34 62/10/34 8/6/34
f 62/10/34 60/11/34 8/6/34
f 60/11/34 58/12/34 8/6/34
f 58/12/34 56/13/34 8/6/34
f 56/13/34 54/14/34 8/6/34
f 54/14/34 52/15/34 8/6/34
f 52/15/34 50/16/34 8/6/34
f 50/16/34 48/17/34 8/6/34
f 48/17/34 46/18/34 8/6/34
f 36/20/34 40/28/34 38/22/34
f 36/20/34 42/24/34 40/28/34
f 44/23/34 42/24/34 36/20/34
f 44/23/34 36/20/34 34/21/34
f 46/18/34 44/23/34 34/21/34
f 8/6/34 46/18/34 34/21/34
f 26/32/34 30/25/34 28/31/34
f 26/32/34 32/19/34 30/25/34
f 10/26/34 8/6/34 12/27/34
f 8/6/34 34/21/34 12/27/34
f 34/21/34 32/19/34 12/27/34
f 32/19/34 26/32/34 12/27/34
f 26/32/34 24/33/34 12/27/34
f 24/33/34 22/34/34 12/27/34
f 22/34/34 20/35/34 12/27/34
f 20/35/34 18/36/34 12/27/34
f 18/36/34 16/30/34 12/27/34
f 16/30/34 14/29/34 12/27/34
