# Blender v2.68 (sub 0) OBJ File: ''
# www.blender.org
mtllib hockeytable.mtl
o Plane
v 15.039934 -0.047610 2.997322
v -14.983680 -0.047610 2.997322
v 15.039934 -0.047610 -3.081384
v -14.983680 -0.047610 -3.081384
v 15.039934 -0.047610 -10.009599
v -14.983680 -0.047610 -10.009599
v 15.039934 -0.047610 9.981410
v -14.983680 -0.047610 9.981410
v 15.039934 2.030696 9.981410
v -14.983680 2.030696 9.981410
v 15.039934 2.097739 -10.009599
v -14.983680 2.097739 -10.009599
v -14.983680 2.049441 -3.081384
v -14.983680 2.124992 2.997322
v 15.039934 2.047399 -3.081384
v 15.039934 2.027873 2.997322
vt 0.037191 0.370648
vt 0.939659 0.369339
vt 0.037929 0.638142
vt 0.940397 0.636834
vt 0.038770 0.943020
vt 0.938811 0.062003
vt 1.077184 0.469108
vt 1.427677 0.468437
vt 1.077434 0.559875
vt 1.077463 0.567921
vt 1.427927 0.559205
vt 1.077875 0.661614
vt 1.401822 0.373177
vt 1.402221 0.463943
vt 1.320297 0.375205
vt 1.239256 0.373238
vt 1.239668 0.466932
vt 1.158383 0.375249
vt 1.158298 0.373132
vt 1.158715 0.468016
vt 1.076773 0.375159
vt 1.239665 0.466004
vt 1.239413 0.374506
vt 1.320286 0.372153
vt 0.941238 0.941712
vt 0.036343 0.063312
vt 1.428339 0.652899
vt 1.320696 0.465847
vt 1.158786 0.466834
vt 1.077172 0.465925
vt 1.320544 0.465849
vn 0.000000 1.000000 -0.000000
vn 0.000000 -0.000000 -1.000000
vn 0.000000 0.000000 1.000000
vn -1.000000 0.000000 0.000000
vn 1.000000 0.000000 0.000000
usemtl Material.001
s off
f 2/1/1 1/2/1 4/3/1
f 4/3/1 3/4/1 6/5/1
f 1/2/1 2/1/1 7/6/1
f 7/7/2 8/8/2 9/9/2
f 6/10/3 5/11/3 12/12/3
f 7/13/4 9/14/4 1/15/4
f 6/16/5 12/17/5 4/18/5
f 2/19/5 14/20/5 8/21/5
f 3/22/4 15/23/4 11/24/4
f 1/2/1 3/4/1 4/3/1
f 3/4/1 5/25/1 6/5/1
f 2/1/1 8/26/1 7/6/1
f 8/8/2 10/11/2 9/9/2
f 5/11/3 11/27/3 12/12/3
f 9/14/4 16/28/4 1/15/4
f 12/17/5 13/29/5 4/18/5
f 14/20/5 10/30/5 8/21/5
f 5/31/4 3/22/4 11/24/4
