# Blender v2.71 (sub 0) OBJ File: 'lane3_combined.blend'
# www.blender.org
o Cube.001
v 47.808029 -2.280639 52.959808
v -7.991979 -2.280639 52.959843
v -8.015034 -2.514716 52.959843
v -8.083321 -2.739828 52.959843
v -8.194213 -2.947293 52.959843
v -8.343449 -3.129136 52.959843
v -8.525291 -3.278372 52.959843
v -8.732756 -3.389265 52.959843
v -8.957869 -3.457551 52.959843
v -9.191977 -3.480609 52.959843
v -9.426085 -3.457550 52.959843
v -9.651196 -3.389265 52.959843
v -9.858661 -3.278372 52.959843
v -10.040504 -3.129136 52.959843
v -10.189739 -2.947293 52.959843
v -10.300632 -2.739829 52.959843
v -10.368917 -2.514717 52.959843
v -10.391973 -2.280639 52.959843
v -48.191978 -2.280639 52.959869
v -48.191978 -8.280640 52.959869
v 47.808029 -8.280640 52.959808
v 47.807968 -2.280639 -43.040184
v 47.807968 -8.280640 -43.040184
v -7.992040 -2.280639 -43.040150
v -7.992007 -2.280639 4.348660
v -10.392035 -2.280639 -43.040150
v -48.192039 -2.280639 -43.040123
v -10.392006 -2.280639 4.959847
v -48.192039 -8.280640 -43.040123
v -10.392037 -2.280670 -43.040150
v -10.368979 -2.514779 -43.040150
v -10.300694 -2.739890 -43.040150
v -10.189800 -2.947353 -43.040150
v -10.040565 -3.129199 -43.040150
v -9.858723 -3.278434 -43.040150
v -9.651258 -3.389326 -43.040150
v -9.426146 -3.457613 -43.040150
v -9.192038 -3.480670 -43.040150
v -8.957930 -3.457613 -43.040150
v -8.732818 -3.389326 -43.040150
v -8.525353 -3.278434 -43.040150
v -8.343510 -3.129199 -43.040150
v -8.194275 -2.947353 -43.040150
v -8.083382 -2.739890 -43.040150
v -8.015096 -2.514777 -43.040150
v -7.992038 -2.280670 -43.040150
v 6.858017 -0.480613 40.959831
v 6.857964 -0.480667 -43.040165
v 6.869435 -0.538016 40.959831
v 6.869381 -0.538069 -43.040165
v 6.901950 -0.586679 40.959831
v 6.901897 -0.586733 -43.040165
v 6.950614 -0.619195 40.959831
v 6.950561 -0.619249 -43.040165
v 7.008017 -0.630613 40.959831
v 7.007964 -0.630667 -43.040165
v 7.065420 -0.619195 40.959831
v 7.065366 -0.619249 -43.040165
v 7.114083 -0.586679 40.959831
v 7.114029 -0.586733 -43.040165
v 7.146598 -0.538016 40.959831
v 7.146545 -0.538069 -43.040165
v 7.158017 -0.480613 40.959831
v 7.157963 -0.480667 -43.040165
v 7.146599 -0.423211 40.959831
v 7.146546 -0.423264 -43.040165
v 7.114083 -0.374547 40.959831
v 7.114029 -0.374601 -43.040165
v 7.065420 -0.342031 40.959831
v 7.065366 -0.342085 -43.040165
v 7.008017 -0.330613 40.959831
v 7.007964 -0.330667 -43.040165
v 6.950614 -0.342031 40.959831
v 6.950561 -0.342085 -43.040165
v 6.901950 -0.374547 40.959831
v 6.901897 -0.374601 -43.040165
v 6.869435 -0.423211 40.959831
v 6.869381 -0.423264 -43.040165
v -7.541984 -0.480613 40.959843
v -7.542038 -0.480667 -43.040154
v -7.530566 -0.538016 40.959843
v -7.530620 -0.538069 -43.040154
v -7.498051 -0.586679 40.959843
v -7.498105 -0.586733 -43.040154
v -7.449387 -0.619195 40.959843
v -7.449441 -0.619249 -43.040154
v -7.391984 -0.630613 40.959843
v -7.392038 -0.630667 -43.040154
v -7.334581 -0.619195 40.959843
v -7.334635 -0.619249 -43.040154
v -7.285918 -0.586679 40.959843
v -7.285972 -0.586733 -43.040154
v -7.253403 -0.538016 40.959843
v -7.253457 -0.538069 -43.040154
v -7.241984 -0.480613 40.959843
v -7.242038 -0.480667 -43.040154
v -7.253402 -0.423211 40.959843
v -7.253456 -0.423264 -43.040154
v -7.285918 -0.374547 40.959843
v -7.285972 -0.374601 -43.040154
v -7.334581 -0.342031 40.959843
v -7.334635 -0.342085 -43.040154
v -7.391984 -0.330613 40.959843
v -7.392038 -0.330667 -43.040154
v -7.449387 -0.342031 40.959843
v -7.449441 -0.342085 -43.040154
v -7.498051 -0.374547 40.959843
v -7.498105 -0.374601 -43.040154
v -7.530567 -0.423211 40.959843
v -7.530621 -0.423264 -43.040154
v 7.098017 -2.280640 40.959831
v 6.918017 -2.280640 40.959831
v 6.917964 -2.280640 -43.040161
v 7.097964 -2.280640 -43.040161
v 7.098017 -0.480640 40.959831
v 6.918017 -0.480640 40.959831
v 6.917964 -0.480640 -43.040161
v 7.097964 -0.480640 -43.040161
v -7.301984 -2.280640 40.959843
v -7.481984 -2.280640 40.959843
v -7.482038 -2.280640 -43.040150
v -7.302038 -2.280640 -43.040150
v -7.301984 -0.480640 40.959843
v -7.481984 -0.480640 40.959843
v -7.482038 -0.480640 -43.040150
v -7.302038 -0.480640 -43.040150
v 11.226194 -2.280640 -31.040167
v -11.610256 -2.280640 -31.040152
v -11.610264 -2.280640 -43.040150
v 11.226187 -2.280640 -43.040165
v 11.226194 15.719360 -31.040167
v -11.610256 15.719360 -31.040152
v -11.610264 15.719360 -43.040150
v 11.226187 15.719360 -43.040165
v -48.192032 -14.280643 -43.040123
v 47.807968 -14.280643 -43.040184
v 47.808018 -14.280643 52.959808
v -48.191994 -14.280643 52.959846
v -48.192013 81.719353 -43.040142
v -48.191978 81.719353 52.959869
v 47.807995 81.719353 -43.040154
v 47.808014 81.719353 52.959824
v -10.391975 -2.280612 52.959835
v -10.368917 -2.046504 52.959835
v -10.300632 -1.821394 52.959835
v -8.083322 -1.821392 52.959835
v -8.015035 -2.046502 52.959835
v -7.991976 -2.280612 52.959835
v -9.191977 -3.480615 52.959835
v -9.426085 -3.457552 52.959835
v -9.651196 -3.389266 52.959835
v -9.858661 -3.278377 52.959835
v -10.040504 -3.129138 52.959835
v -10.189739 -2.947298 52.959835
v -10.300632 -2.739832 52.959835
v -10.368917 -2.514719 52.959835
v -8.015034 -2.514719 52.959835
v -8.083321 -2.739832 52.959835
v -8.194213 -2.947298 52.959835
v -8.343449 -3.129138 52.959835
v -8.525291 -3.278377 52.959835
v -8.732756 -3.389266 52.959835
v -8.957869 -3.457552 52.959835
v -10.368979 -2.514784 -43.040150
v -10.392037 -2.280676 -43.040150
v -10.368979 -2.046569 -43.040150
v -10.300694 -2.739896 -43.040150
v -10.189800 -2.947358 -43.040150
v -10.040565 -3.129203 -43.040150
v -9.858723 -3.278437 -43.040150
v -9.651258 -3.389330 -43.040150
v -9.426146 -3.457617 -43.040150
v -9.192038 -3.480675 -43.040150
v -8.957930 -3.457617 -43.040150
v -8.732818 -3.389330 -43.040150
v -8.525353 -3.278437 -43.040150
v -8.343510 -3.129203 -43.040150
v -8.194275 -2.947358 -43.040150
v -8.083382 -2.739896 -43.040150
v -8.015096 -2.514780 -43.040150
v -7.992038 -2.280676 -43.040150
v -8.015097 -2.046565 -43.040150
v -8.083384 -1.821452 -43.040150
v -10.300694 -1.821454 -43.040150
vt 0.709346 0.717871
vt 0.695277 0.571650
vt 0.695345 0.571047
vt 0.238202 0.941176
vt 0.220721 0.941176
vt 0.220721 0.470588
vt 0.779280 0.552016
vt 0.779280 0.313726
vt 0.907573 0.313726
vt 0.250930 0.941176
vt 0.250930 0.705882
vt 0.337839 0.941176
vt 0.726848 0.470588
vt 0.744276 0.470588
vt 0.744276 0.941177
vt 0.000000 0.941176
vt 0.000000 0.470588
vt 0.726848 0.717871
vt 0.712779 0.618015
vt 0.712847 0.617412
vt 0.639340 0.764706
vt 0.639340 0.529412
vt 0.640024 0.529412
vt 0.639340 1.000000
vt 0.640688 0.529412
vt 0.640688 1.000000
vt 0.640024 1.000000
vt 0.641304 0.529412
vt 0.641304 1.000000
vt 0.641851 0.529412
vt 0.641851 1.000000
vt 0.642305 0.529412
vt 0.642305 1.000000
vt 0.565170 0.470588
vt 0.565170 0.941177
vt 0.564693 0.941177
vt 0.565688 0.470588
vt 0.565688 0.941177
vt 0.566226 0.470588
vt 0.566226 0.941177
vt 0.566764 0.470588
vt 0.566764 0.941177
vt 0.567282 0.470588
vt 0.567282 0.941177
vt 0.567759 0.470588
vt 0.567759 0.941177
vt 0.561156 0.941177
vt 0.561156 0.470588
vt 0.561628 0.470588
vt 0.560596 0.941177
vt 0.560596 0.470588
vt 0.559970 0.941177
vt 0.559970 0.470588
vt 0.559302 0.941177
vt 0.559302 0.470588
vt 0.558617 0.702886
vt 0.558617 0.470588
vt 0.250245 0.882353
vt 0.250245 0.470588
vt 0.250409 0.470588
vt 0.250409 0.882353
vt 0.250544 0.470588
vt 0.643410 0.941177
vt 0.643409 0.529412
vt 0.643521 0.529412
vt 0.643521 0.941177
vt 0.643653 0.529412
vt 0.643653 0.941177
vt 0.643785 0.529412
vt 0.643785 0.941177
vt 0.643897 0.529412
vt 0.249309 0.470588
vt 0.249309 0.882353
vt 0.249171 0.882353
vt 0.249171 0.470588
vt 0.249005 0.882353
vt 0.249005 0.470588
vt 0.248837 0.882353
vt 0.248837 0.470588
vt 0.248691 0.882353
vt 0.643897 0.941177
vt 0.644009 0.529412
vt 0.644009 0.941177
vt 0.644141 0.529412
vt 0.644141 0.941177
vt 0.644273 0.529412
vt 0.644273 0.941177
vt 0.644385 0.529412
vt 0.589171 0.706427
vt 0.589853 0.706497
vt 0.589580 0.706851
vt 0.250076 0.882353
vt 0.250076 0.470588
vt 0.249927 0.882353
vt 0.249927 0.470588
vt 0.591068 0.706791
vt 0.590943 0.706851
vt 0.591164 0.706667
vt 0.642623 0.941177
vt 0.642623 0.529412
vt 0.642787 0.529412
vt 0.642787 0.941177
vt 0.642922 0.529412
vt 0.642922 0.941177
vt 0.643033 0.529412
vt 0.643034 0.941177
vt 0.643165 0.529412
vt 0.643166 0.941177
vt 0.643297 0.529412
vt 0.643297 0.941177
vt 0.249447 0.470588
vt 0.249447 0.882353
vt 0.249613 0.470588
vt 0.249613 0.882353
vt 0.249782 0.470588
vt 0.249782 0.882353
vt 0.644385 0.941177
vt 0.644497 0.529412
vt 0.644497 0.941177
vt 0.644629 0.529412
vt 0.644629 0.941177
vt 0.644761 0.529412
vt 0.644761 0.941177
vt 0.644873 0.529412
vt 0.589171 0.706237
vt 0.588542 0.706126
vt 0.588898 0.705882
vt 0.642454 0.941177
vt 0.642454 0.529412
vt 0.642305 0.941177
vt 0.590387 0.706791
vt 0.590261 0.706851
vt 0.590482 0.706667
vt 0.586835 0.711765
vt 0.586835 0.705882
vt 0.587248 0.705882
vt 0.576378 0.470588
vt 0.581606 0.470588
vt 0.581606 0.882353
vt 0.588490 0.705882
vt 0.588490 0.711765
vt 0.588076 0.711765
vt 0.243447 0.882353
vt 0.243447 0.470588
vt 0.645287 0.941177
vt 0.645287 0.529412
vt 0.645701 0.529412
vt 0.646115 0.529412
vt 0.646115 0.941177
vt 0.645701 0.941177
vt 0.587662 0.711765
vt 0.587662 0.705882
vt 0.588076 0.705882
vt 0.586835 0.470588
vt 0.586835 0.882353
vt 0.587248 0.711765
vt 0.238202 0.470588
vt 0.644873 0.941177
vt 0.646529 0.529412
vt 0.646529 0.941177
vt 0.586835 0.647059
vt 0.639120 0.647059
vt 0.639120 0.705882
vt 0.639340 0.470588
vt 0.691844 0.470588
vt 0.691844 0.529412
vt 0.639279 0.647059
vt 0.586835 0.588235
vt 0.586835 0.529412
vt 0.337839 0.470588
vt 0.558559 0.000000
vt 0.279705 0.470588
vt 0.779280 0.000000
vt 1.000000 0.000000
vt 0.000000 0.000000
vt 0.747777 0.571047
vt 0.779280 0.470588
vt 0.779280 0.717871
vt 0.569771 0.470588
vt 0.569771 0.941176
vt 0.569087 0.941176
vt 0.569087 0.470588
vt 0.568407 0.941176
vt 0.570435 0.470588
vt 0.570435 0.941176
vt 0.568407 0.470588
vt 0.572053 0.941176
vt 0.572053 0.470588
vt 0.572692 0.470588
vt 0.572692 0.941176
vt 0.573367 0.470588
vt 0.573367 0.941176
vt 0.574052 0.470588
vt 0.574052 0.941176
vt 0.574720 0.470588
vt 0.574720 0.941176
vt 0.575346 0.470588
vt 0.575346 0.941176
vt 0.575906 0.470588
vt 0.575906 0.941176
vt 0.564693 0.470588
vt 0.564216 0.941176
vt 0.564216 0.470588
vt 0.563699 0.941176
vt 0.563699 0.470588
vt 0.563160 0.941176
vt 0.563160 0.470588
vt 0.562622 0.941176
vt 0.562622 0.470588
vt 0.562105 0.941176
vt 0.562105 0.470588
vt 0.561628 0.941176
vt 0.571598 0.941176
vt 0.571598 0.470588
vt 0.571051 0.941176
vt 0.571051 0.470588
vt 0.691844 0.574138
vt 0.692527 0.574079
vt 0.691844 0.717871
vt 0.692527 0.568015
vt 0.691844 0.567956
vt 0.709346 0.470588
vt 0.779280 0.784314
vt 0.907573 0.784314
vt 0.693184 0.573903
vt 0.693789 0.573617
vt 0.693184 0.568191
vt 0.694319 0.573233
vt 0.693789 0.568477
vt 0.694755 0.572764
vt 0.694319 0.568861
vt 0.695078 0.572230
vt 0.694755 0.569330
vt 0.695078 0.569864
vt 0.695277 0.570444
vt 0.250930 0.470588
vt 0.726848 0.941177
vt 0.709346 0.620503
vt 0.709346 0.614321
vt 0.710029 0.620444
vt 0.710029 0.614381
vt 0.710686 0.620268
vt 0.711291 0.619983
vt 0.710686 0.614557
vt 0.711821 0.619598
vt 0.711291 0.614842
vt 0.712257 0.619130
vt 0.711821 0.615227
vt 0.712580 0.618595
vt 0.712257 0.615695
vt 0.712580 0.616230
vt 0.712779 0.616809
vt 0.558617 0.941177
vt 0.250544 0.882353
vt 0.248691 0.470588
vt 0.589319 0.706751
vt 0.589223 0.706607
vt 0.589223 0.706067
vt 0.589444 0.705882
vt 0.589580 0.705896
vt 0.589705 0.705982
vt 0.589801 0.706126
vt 0.589853 0.706307
vt 0.589801 0.706667
vt 0.589705 0.706791
vt 0.589444 0.706837
vt 0.589319 0.705942
vt 0.590534 0.706237
vt 0.590682 0.705942
vt 0.590534 0.706427
vt 0.590586 0.706067
vt 0.590943 0.705896
vt 0.591164 0.706126
vt 0.590807 0.705882
vt 0.591068 0.705982
vt 0.591216 0.706497
vt 0.591216 0.706307
vt 0.590682 0.706751
vt 0.590586 0.706607
vt 0.590807 0.706837
vt 0.589120 0.706607
vt 0.589024 0.706751
vt 0.588763 0.706851
vt 0.588899 0.706837
vt 0.588638 0.706791
vt 0.588542 0.706667
vt 0.588490 0.706497
vt 0.588490 0.706307
vt 0.588638 0.705982
vt 0.588763 0.705896
vt 0.589024 0.705942
vt 0.589120 0.706067
vt 0.576378 0.882353
vt 0.589853 0.706237
vt 0.589905 0.706067
vt 0.590001 0.705942
vt 0.590261 0.705896
vt 0.590482 0.706126
vt 0.590126 0.705882
vt 0.590387 0.705982
vt 0.590534 0.706497
vt 0.590534 0.706307
vt 0.589853 0.706427
vt 0.590001 0.706751
vt 0.589905 0.706607
vt 0.590126 0.706837
vt 0.238202 0.882353
vt 0.639279 0.588235
vt 0.279705 0.000000
vt 1.000000 0.313725
vt 0.744959 0.568015
vt 0.744276 0.567956
vt 0.744276 0.574138
vt 0.744959 0.574079
vt 0.745616 0.568191
vt 0.745616 0.573903
vt 0.746221 0.568477
vt 0.746221 0.573617
vt 0.746751 0.568861
vt 0.746751 0.573233
vt 0.747187 0.569330
vt 0.747187 0.572764
vt 0.747510 0.569864
vt 0.747510 0.572230
vt 0.747709 0.570444
vt 0.747709 0.571650
vt 0.576378 0.941176
vn -0.000000 -0.000000 1.000000
vn 1.000000 0.000000 -0.000000
vn 0.000000 1.000000 0.000000
vn -1.000000 0.000000 0.000000
vn 0.000000 -1.000000 0.000000
vn 0.000000 -0.000000 -1.000000
vn 0.995200 0.098000 -0.000000
vn 0.996700 -0.081800 -0.000000
vn 0.956900 0.290300 -0.000000
vn 0.881900 0.471400 -0.000000
vn 0.773000 0.634400 -0.000000
vn 0.634400 0.773000 -0.000000
vn 0.471400 0.881900 -0.000000
vn 0.290300 0.956900 -0.000000
vn 0.098000 0.995200 -0.000000
vn -0.098000 0.995200 -0.000000
vn -0.290300 0.956900 -0.000000
vn -0.471400 0.881900 -0.000000
vn -0.634400 0.773000 -0.000000
vn -0.773000 0.634400 0.000000
vn -0.881900 0.471400 0.000000
vn -0.956900 0.290300 0.000000
vn -0.995200 0.098000 0.000000
vn -0.996600 -0.082800 0.000000
vn -0.980800 -0.195100 0.000000
vn -0.831500 -0.555600 0.000000
vn -0.555600 -0.831500 0.000000
vn -0.195100 -0.980800 0.000000
vn 0.195100 -0.980800 0.000000
vn 0.555600 -0.831500 0.000000
vn 0.831500 -0.555600 -0.000000
vn 0.980800 -0.195100 -0.000000
vn 0.980800 0.195100 -0.000000
vn 0.831500 0.555600 -0.000000
vn 0.555600 0.831500 -0.000000
vn 0.195100 0.980800 -0.000000
vn -0.195100 0.980800 -0.000000
vn -0.555600 0.831500 -0.000000
vn -0.980800 0.195100 0.000000
vn -0.831500 0.555600 0.000000
vn -0.000200 0.000000 1.000000
vn 0.995200 -0.098000 -0.000000
vn 0.956900 -0.290300 -0.000000
vn -0.956900 -0.290300 0.000000
vn -0.995200 -0.098000 0.000000
vn -0.000400 0.000000 -1.000000
vn -0.000200 0.000000 -1.000000
vn 0.000400 0.000000 -1.000000
vn 0.000100 0.000000 -1.000000
vn -0.000100 0.000000 -1.000000
vn 0.000100 0.000000 1.000000
vn -0.000100 0.000000 1.000000
vn 0.000200 0.000000 1.000000
vn 0.000200 0.000000 -1.000000
vn -0.000400 0.000000 1.000000
s off
f 21/1/1 9/2/1 10/3/1
f 1/4/2 21/5/2 23/6/2
f 25/7/3 2/8/3 1/9/3
f 18/10/3 28/11/3 19/12/3
f 27/13/4 29/14/4 20/15/4
f 20/16/5 29/17/5 23/6/5
f 29/18/6 37/19/6 38/20/6
f 28/21/7 18/22/7 17/23/7
f 26/24/8 28/21/8 30/24/8
f 16/25/9 32/26/9 31/27/9
f 15/28/10 33/29/10 32/26/10
f 14/30/11 34/31/11 33/29/11
f 13/32/12 35/33/12 34/31/12
f 12/34/13 36/35/13 35/36/13
f 11/37/14 37/38/14 36/35/14
f 10/39/15 38/40/15 37/38/15
f 9/41/16 39/42/16 38/40/16
f 8/43/17 40/44/17 39/42/17
f 7/45/18 41/46/18 40/44/18
f 6/47/19 42/48/19 41/49/19
f 5/50/20 43/51/20 42/48/20
f 4/52/21 44/53/21 43/51/21
f 3/54/22 45/55/22 44/53/22
f 25/56/23 46/57/23 45/55/23
f 25/56/24 24/57/24 46/57/24
f 47/58/25 48/59/25 50/60/25
f 49/61/26 50/60/26 52/62/26
f 51/63/27 52/64/27 54/65/27
f 53/66/28 54/65/28 56/67/28
f 55/68/29 56/67/29 58/69/29
f 57/70/30 58/69/30 60/71/30
f 59/72/31 60/73/31 62/74/31
f 61/75/32 62/74/32 64/76/32
f 63/77/33 64/76/33 66/78/33
f 65/79/34 66/78/34 68/80/34
f 67/81/35 68/71/35 70/82/35
f 69/83/36 70/82/36 72/84/36
f 71/85/37 72/84/37 74/86/37
f 73/87/38 74/86/38 76/88/38
f 48/89/6 62/90/6 56/91/6
f 77/92/39 78/93/39 48/59/39
f 75/94/40 76/95/40 78/93/40
f 69/96/41 71/97/41 67/98/41
f 79/99/25 80/100/25 82/101/25
f 81/102/26 82/101/26 84/103/26
f 83/104/27 84/103/27 86/105/27
f 85/106/28 86/105/28 88/107/28
f 87/108/29 88/107/29 90/109/29
f 89/110/30 90/109/30 92/64/30
f 91/73/31 92/72/31 94/111/31
f 93/112/32 94/111/32 96/113/32
f 95/114/33 96/113/33 98/115/33
f 97/116/34 98/115/34 100/95/34
f 99/117/35 100/88/35 102/118/35
f 101/119/36 102/118/36 104/120/36
f 103/121/37 104/120/37 106/122/37
f 105/123/38 106/122/38 108/124/38
f 82/125/6 94/126/6 88/127/6
f 109/128/39 110/129/39 80/100/39
f 107/130/40 108/32/40 110/129/40
f 101/131/1 103/132/1 99/133/1
f 116/134/1 112/135/1 111/136/1
f 117/137/4 113/138/4 112/139/4
f 118/140/6 114/141/6 113/142/6
f 115/80/2 111/143/2 114/144/2
f 112/145/5 113/146/5 114/147/5
f 117/148/3 116/149/3 115/150/3
f 124/151/1 120/152/1 119/153/1
f 125/138/4 121/154/4 120/155/4
f 126/152/6 122/151/6 121/156/6
f 123/157/2 119/144/2 122/143/2
f 120/158/5 121/124/5 122/146/5
f 125/159/3 124/160/3 123/149/3
f 133/161/4 129/162/4 128/163/4
f 134/164/6 130/165/6 129/166/6
f 131/167/2 127/161/2 130/168/2
f 128/168/5 129/169/5 130/22/5
f 133/164/3 132/22/3 131/169/3
f 136/12/5 137/170/5 138/57/5
f 135/171/4 138/57/4 140/172/4
f 135/8/6 139/173/6 141/174/6
f 136/172/2 141/17/2 142/175/2
f 149/176/1 138/177/1 137/178/1
f 140/177/3 142/57/3 141/171/3
f 156/179/7 164/180/7 165/181/7
f 143/182/42 165/181/42 166/183/42
f 155/184/9 167/185/9 164/180/9
f 144/186/43 166/183/43 184/46/43
f 146/187/44 183/188/44 182/189/44
f 147/190/45 182/189/45 181/191/45
f 148/192/23 181/191/23 180/193/23
f 157/194/22 180/193/22 179/195/22
f 158/196/21 179/195/21 178/197/21
f 159/198/20 178/197/20 177/199/20
f 160/200/19 177/199/19 176/137/19
f 161/201/18 176/36/18 175/202/18
f 162/203/17 175/202/17 174/204/17
f 163/205/16 174/204/16 173/206/16
f 149/207/15 173/206/15 172/208/15
f 150/209/14 172/208/14 171/210/14
f 151/211/13 171/210/13 170/212/13
f 152/188/12 170/187/12 169/213/12
f 153/214/11 169/213/11 168/215/11
f 154/216/10 168/215/10 167/185/10
f 2/217/1 3/218/1 1/219/1
f 17/220/1 18/221/1 19/165/1
f 21/1/1 10/3/1 20/222/1
f 24/223/3 25/7/3 22/224/3
f 19/165/1 20/222/1 17/220/1
f 21/1/1 3/218/1 4/225/1
f 3/218/1 21/1/1 1/219/1
f 21/1/1 4/225/1 5/226/1
f 20/222/1 16/227/1 17/220/1
f 21/1/1 5/226/1 6/228/1
f 20/222/1 15/229/1 16/227/1
f 21/1/1 6/228/1 7/230/1
f 20/222/1 14/231/1 15/229/1
f 21/1/1 7/230/1 8/232/1
f 20/222/1 13/233/1 14/231/1
f 21/1/1 8/232/1 9/2/1
f 20/222/1 12/234/1 13/233/1
f 22/157/2 1/4/2 23/6/2
f 20/222/1 10/3/1 11/235/1
f 20/222/1 11/235/1 12/234/1
f 28/11/3 26/236/3 27/170/3
f 19/237/4 27/13/4 20/15/4
f 25/7/3 1/9/3 22/224/3
f 21/5/5 20/16/5 23/6/5
f 28/11/3 27/170/3 19/12/3
f 26/238/6 30/238/6 27/1/6
f 46/239/6 24/239/6 22/222/6
f 29/18/6 38/20/6 23/13/6
f 27/1/6 30/238/6 31/240/6
f 45/241/6 46/239/6 22/222/6
f 29/18/6 27/1/6 31/240/6
f 22/222/6 23/13/6 45/241/6
f 29/18/6 31/240/6 32/242/6
f 31/27/7 28/21/7 17/23/7
f 29/18/6 32/242/6 33/243/6
f 23/13/6 44/244/6 45/241/6
f 29/18/6 33/243/6 34/245/6
f 23/13/6 43/246/6 44/244/6
f 29/18/6 34/245/6 35/247/6
f 23/13/6 42/248/6 43/246/6
f 29/18/6 35/247/6 36/249/6
f 23/13/6 41/250/6 42/248/6
f 29/18/6 36/249/6 37/19/6
f 23/13/6 40/251/6 41/250/6
f 16/25/10 15/28/10 32/26/10
f 23/13/6 38/20/6 39/252/6
f 23/13/6 39/252/6 40/251/6
f 17/23/9 16/25/9 31/27/9
f 31/27/7 30/24/7 28/21/7
f 15/28/11 14/30/11 33/29/11
f 14/30/12 13/32/12 34/31/12
f 13/201/13 12/34/13 35/36/13
f 12/34/14 11/37/14 36/35/14
f 11/37/15 10/39/15 37/38/15
f 10/39/16 9/41/16 38/40/16
f 9/41/17 8/43/17 39/42/17
f 8/43/18 7/45/18 40/44/18
f 7/212/19 6/47/19 41/49/19
f 6/47/20 5/50/20 42/48/20
f 5/50/21 4/52/21 43/51/21
f 4/52/22 3/54/22 44/53/22
f 3/54/23 2/253/23 25/56/23
f 49/61/25 47/58/25 50/60/25
f 25/56/23 45/55/23 3/54/23
f 51/254/26 49/61/26 52/62/26
f 53/66/27 51/63/27 54/65/27
f 55/68/28 53/66/28 56/67/28
f 57/70/29 55/68/29 58/69/29
f 59/81/30 57/70/30 60/71/30
f 61/75/31 59/72/31 62/74/31
f 63/77/32 61/75/32 64/76/32
f 65/79/33 63/77/33 66/78/33
f 67/255/34 65/79/34 68/80/34
f 69/83/35 67/81/35 70/82/35
f 71/85/36 69/83/36 72/84/36
f 73/87/37 71/85/37 74/86/37
f 75/117/38 73/87/38 76/88/38
f 52/256/46 50/257/46 48/89/46
f 48/89/46 78/125/46 76/258/46
f 77/92/40 75/94/40 78/93/40
f 72/259/47 70/260/47 68/261/47
f 68/261/48 66/262/48 64/263/48
f 62/90/49 60/264/49 56/91/49
f 60/264/6 58/265/6 56/91/6
f 56/91/6 54/266/6 52/256/6
f 48/89/49 76/258/49 74/267/49
f 48/89/6 74/267/6 68/261/6
f 74/267/49 72/259/49 68/261/49
f 52/256/49 48/89/49 56/91/49
f 68/261/6 62/90/6 48/89/6
f 68/261/50 64/263/50 62/90/50
f 47/58/39 77/92/39 48/59/39
f 49/268/1 53/269/1 47/270/1
f 49/268/1 51/271/1 53/269/1
f 57/272/51 61/273/51 55/274/51
f 57/272/1 59/275/1 61/273/1
f 65/276/1 67/98/1 63/277/1
f 67/98/1 61/273/1 63/277/1
f 75/278/1 77/279/1 47/270/1
f 61/273/1 53/269/1 55/274/1
f 47/270/1 53/269/1 61/273/1
f 83/104/26 81/102/26 84/103/26
f 81/102/25 79/99/25 82/101/25
f 71/97/52 75/278/52 47/270/52
f 61/273/1 67/98/1 47/270/1
f 47/270/1 67/98/1 71/97/1
f 71/97/53 73/280/53 75/278/53
f 85/106/27 83/104/27 86/105/27
f 87/108/28 85/106/28 88/107/28
f 89/110/29 87/108/29 90/109/29
f 91/63/30 89/110/30 92/64/30
f 93/112/31 91/73/31 94/111/31
f 95/114/32 93/112/32 96/113/32
f 97/116/33 95/114/33 98/115/33
f 99/94/34 97/116/34 100/95/34
f 101/119/35 99/117/35 102/118/35
f 103/121/36 101/119/36 104/120/36
f 105/123/37 103/121/37 106/122/37
f 107/158/38 105/123/38 108/124/38
f 109/128/40 107/130/40 110/129/40
f 80/89/6 110/281/6 108/282/6
f 104/283/6 82/125/6 106/284/6
f 104/283/54 102/285/54 100/286/54
f 100/286/6 98/287/6 96/288/6
f 104/283/6 100/286/6 82/125/6
f 92/289/6 90/290/6 88/127/6
f 88/127/6 86/291/6 84/292/6
f 80/89/49 108/282/49 106/284/49
f 94/126/50 92/289/50 88/127/50
f 82/125/6 80/89/6 106/284/6
f 84/292/49 82/125/49 88/127/49
f 79/99/39 109/128/39 80/100/39
f 100/286/6 96/288/6 94/126/6
f 100/286/6 94/126/6 82/125/6
f 116/293/4 117/137/4 112/139/4
f 81/294/53 83/295/53 85/296/53
f 89/297/1 93/298/1 87/299/1
f 89/297/41 91/300/41 93/298/41
f 97/301/1 99/133/1 95/302/1
f 115/156/1 116/134/1 111/136/1
f 79/303/1 81/294/1 103/132/1
f 107/304/55 109/305/55 79/303/55
f 85/296/1 87/299/1 81/294/1
f 87/299/1 93/298/1 81/294/1
f 93/298/1 103/132/1 81/294/1
f 99/133/52 93/298/52 95/302/52
f 103/132/1 93/298/1 99/133/1
f 107/304/1 79/303/1 103/132/1
f 103/132/1 105/306/1 107/304/1
f 117/153/6 118/140/6 113/142/6
f 118/255/2 115/80/2 114/144/2
f 111/150/5 112/145/5 114/147/5
f 118/147/3 117/148/3 115/150/3
f 123/142/1 124/151/1 119/153/1
f 124/139/4 125/138/4 120/155/4
f 125/136/6 126/152/6 121/156/6
f 126/307/2 123/157/2 122/143/2
f 119/145/5 120/158/5 122/146/5
f 126/148/3 125/159/3 123/149/3
f 132/135/4 133/161/4 128/163/4
f 133/22/6 134/164/6 129/166/6
f 134/308/2 131/167/2 130/168/2
f 127/308/5 128/168/5 130/22/5
f 134/154/3 133/164/3 131/169/3
f 135/253/5 136/12/5 138/57/5
f 139/309/4 135/171/4 140/172/4
f 136/310/6 135/8/6 141/174/6
f 137/309/2 136/172/2 142/175/2
f 156/311/1 143/312/1 138/177/1
f 137/178/1 148/313/1 157/314/1
f 155/315/1 156/311/1 138/177/1
f 137/178/1 157/314/1 158/316/1
f 154/317/1 155/315/1 138/177/1
f 137/178/1 158/316/1 159/318/1
f 153/319/1 154/317/1 138/177/1
f 137/178/1 159/318/1 160/320/1
f 152/321/1 153/319/1 138/177/1
f 137/178/1 160/320/1 161/322/1
f 151/323/1 152/321/1 138/177/1
f 137/178/1 161/322/1 162/324/1
f 150/325/1 151/323/1 138/177/1
f 137/178/1 162/324/1 163/326/1
f 149/176/51 150/325/51 138/177/51
f 163/326/1 149/176/1 137/178/1
f 143/182/7 156/179/7 165/181/7
f 139/173/3 140/177/3 141/171/3
f 144/186/42 143/182/42 166/183/42
f 156/179/9 155/184/9 164/180/9
f 145/45/43 144/186/43 184/46/43
f 147/190/44 146/187/44 182/189/44
f 148/192/45 147/190/45 181/191/45
f 157/194/23 148/192/23 180/193/23
f 158/196/22 157/194/22 179/195/22
f 159/198/21 158/196/21 178/197/21
f 160/200/20 159/198/20 177/199/20
f 161/327/19 160/200/19 176/137/19
f 162/203/18 161/201/18 175/202/18
f 163/205/17 162/203/17 174/204/17
f 149/207/16 163/205/16 173/206/16
f 150/209/15 149/207/15 172/208/15
f 151/211/14 150/209/14 171/210/14
f 152/49/13 151/211/13 170/212/13
f 153/214/12 152/188/12 169/213/12
f 154/216/11 153/214/11 168/215/11
f 155/184/10 154/216/10 167/185/10
