# Blender v2.71 (sub 0) OBJ File: 'lane3_combined.blend'
# www.blender.org
o Cube.001
v -57.422653 -8.627413 48.628410
v -57.422653 -8.627413 -7.171594
v -57.422653 -8.861490 -7.194649
v -57.422653 -9.086601 -7.262936
v -57.422653 -9.294067 -7.373828
v -57.422653 -9.475910 -7.523064
v -57.422653 -9.625146 -7.704907
v -57.422653 -9.736038 -7.912372
v -57.422653 -9.804325 -8.137484
v -57.422653 -9.827382 -8.371592
v -57.422653 -9.804324 -8.605700
v -57.422653 -9.736038 -8.830812
v -57.422653 -9.625146 -9.038276
v -57.422653 -9.475910 -9.220120
v -57.422653 -9.294067 -9.369355
v -57.422653 -9.086602 -9.480247
v -57.422653 -8.861491 -9.548534
v -57.422653 -8.627413 -9.571589
v -57.422653 -8.627413 -47.371590
v -57.422653 -14.627414 -47.371590
v -57.422653 -14.627414 48.628410
v 38.577343 -8.627413 48.628410
v 38.577343 -14.627414 48.628410
v 38.577343 -8.627413 -7.171594
v -8.811466 -8.627413 -7.171591
v 38.577343 -8.627413 -9.571589
v 38.577343 -8.627413 -47.371590
v -9.422653 -8.627413 -9.571592
v 38.577343 -14.627414 -47.371590
v 38.577343 -8.627444 -9.571592
v 38.577343 -8.861552 -9.548534
v 38.577343 -9.086663 -9.480247
v 38.577343 -9.294127 -9.369355
v 38.577343 -9.475972 -9.220120
v 38.577343 -9.625207 -9.038276
v 38.577343 -9.736099 -8.830812
v 38.577343 -9.804386 -8.605700
v 38.577343 -9.827444 -8.371592
v 38.577343 -9.804386 -8.137484
v 38.577343 -9.736099 -7.912372
v 38.577343 -9.625207 -7.704907
v 38.577343 -9.475972 -7.523064
v 38.577343 -9.294127 -7.373828
v 38.577343 -9.086663 -7.262936
v 38.577343 -8.861551 -7.194649
v 38.577343 -8.627444 -7.171591
v -45.422653 -6.827387 7.678410
v 38.577347 -6.827440 7.678410
v -45.422653 -6.884789 7.689828
v 38.577347 -6.884843 7.689828
v -45.422653 -6.933453 7.722342
v 38.577347 -6.933506 7.722342
v -45.422653 -6.965968 7.771007
v 38.577347 -6.966022 7.771007
v -45.422653 -6.977386 7.828409
v 38.577347 -6.977440 7.828409
v -45.422653 -6.965968 7.885812
v 38.577347 -6.966022 7.885812
v -45.422653 -6.933453 7.934475
v 38.577347 -6.933506 7.934475
v -45.422653 -6.884789 7.966990
v 38.577347 -6.884843 7.966990
v -45.422653 -6.827387 7.978409
v 38.577347 -6.827440 7.978409
v -45.422653 -6.769984 7.966991
v 38.577347 -6.770038 7.966991
v -45.422653 -6.721321 7.934475
v 38.577347 -6.721375 7.934475
v -45.422653 -6.688805 7.885812
v 38.577347 -6.688859 7.885812
v -45.422653 -6.677387 7.828409
v 38.577347 -6.677441 7.828409
v -45.422653 -6.688805 7.771007
v 38.577347 -6.688859 7.771007
v -45.422653 -6.721321 7.722342
v 38.577347 -6.721375 7.722342
v -45.422653 -6.769984 7.689827
v 38.577347 -6.770038 7.689827
v -45.422653 -6.827387 -6.721591
v 38.577347 -6.827440 -6.721591
v -45.422653 -6.884789 -6.710174
v 38.577347 -6.884843 -6.710174
v -45.422653 -6.933453 -6.677658
v 38.577347 -6.933506 -6.677658
v -45.422653 -6.965968 -6.628995
v 38.577347 -6.966022 -6.628995
v -45.422653 -6.977386 -6.571591
v 38.577347 -6.977440 -6.571591
v -45.422653 -6.965968 -6.514189
v 38.577347 -6.966022 -6.514189
v -45.422653 -6.933453 -6.465526
v 38.577347 -6.933506 -6.465526
v -45.422653 -6.884789 -6.433010
v 38.577347 -6.884843 -6.433010
v -45.422653 -6.827387 -6.421592
v 38.577347 -6.827440 -6.421592
v -45.422653 -6.769984 -6.433009
v 38.577347 -6.770038 -6.433009
v -45.422653 -6.721321 -6.465526
v 38.577347 -6.721375 -6.465526
v -45.422653 -6.688805 -6.514189
v 38.577347 -6.688859 -6.514189
v -45.422653 -6.677387 -6.571591
v 38.577347 -6.677441 -6.571591
v -45.422653 -6.688805 -6.628995
v 38.577347 -6.688859 -6.628995
v -45.422653 -6.721321 -6.677658
v 38.577347 -6.721375 -6.677658
v -45.422653 -6.769984 -6.710174
v 38.577347 -6.770038 -6.710174
v -45.422653 -8.627414 7.918408
v -45.422653 -8.627414 7.738409
v 38.577343 -8.627414 7.738409
v 38.577343 -8.627414 7.918408
v -45.422653 -6.827414 7.918408
v -45.422653 -6.827414 7.738409
v 38.577343 -6.827414 7.738409
v 38.577343 -6.827414 7.918408
v -45.422653 -8.627414 -6.481592
v -45.422653 -8.627414 -6.661592
v 38.577343 -8.627414 -6.661592
v 38.577343 -8.627414 -6.481592
v -45.422653 -6.827414 -6.481592
v -45.422653 -6.827414 -6.661592
v 38.577343 -6.827414 -6.661592
v 38.577343 -6.827414 -6.481592
v 26.577347 -8.627414 12.046635
v 26.577347 -8.627414 -10.789818
v 38.577347 -8.627414 -10.789818
v 38.577347 -8.627414 12.046635
v 26.577347 9.372586 12.046635
v 26.577347 9.372586 -10.789818
v 38.577347 9.372586 -10.789818
v 38.577347 9.372586 12.046635
v 38.577343 -20.627417 -47.371586
v 38.577343 -20.627417 48.628410
v -57.422653 -20.627417 48.628403
v -57.422630 -20.627417 -47.371609
v 38.577362 75.372589 -47.371563
v -57.422646 75.372589 -47.371590
v 38.577312 75.372589 48.628441
v -57.422668 75.372589 48.628395
v -57.422638 -8.627386 -9.571592
v -57.422638 -8.393278 -9.548534
v -57.422638 -8.168168 -9.480248
v -57.422638 -8.168166 -7.262937
v -57.422638 -8.393276 -7.194650
v -57.422638 -8.627386 -7.171591
v -57.422638 -9.827389 -8.371592
v -57.422638 -9.804326 -8.605700
v -57.422638 -9.736039 -8.830812
v -57.422638 -9.625151 -9.038276
v -57.422638 -9.475912 -9.220120
v -57.422638 -9.294071 -9.369355
v -57.422638 -9.086606 -9.480247
v -57.422638 -8.861493 -9.548534
v -57.422638 -8.861493 -7.194649
v -57.422638 -9.086606 -7.262936
v -57.422638 -9.294071 -7.373828
v -57.422638 -9.475912 -7.523064
v -57.422638 -9.625151 -7.704907
v -57.422638 -9.736039 -7.912372
v -57.422638 -9.804326 -8.137484
v 38.577343 -8.861558 -9.548534
v 38.577343 -8.627450 -9.571592
v 38.577343 -8.393343 -9.548534
v 38.577343 -9.086670 -9.480247
v 38.577343 -9.294131 -9.369355
v 38.577343 -9.475977 -9.220120
v 38.577343 -9.625211 -9.038276
v 38.577343 -9.736104 -8.830812
v 38.577343 -9.804391 -8.605700
v 38.577343 -9.827449 -8.371592
v 38.577343 -9.804391 -8.137484
v 38.577343 -9.736104 -7.912372
v 38.577343 -9.625211 -7.704907
v 38.577343 -9.475977 -7.523064
v 38.577343 -9.294131 -7.373828
v 38.577343 -9.086670 -7.262936
v 38.577343 -8.861553 -7.194649
v 38.577343 -8.627450 -7.171591
v 38.577343 -8.393338 -7.194650
v 38.577343 -8.168226 -7.262937
v 38.577343 -8.168228 -9.480248
vt 0.726848 0.717871
vt 0.712779 0.571650
vt 0.712846 0.571047
vt 0.238202 0.941176
vt 0.220721 0.941176
vt 0.220721 0.470588
vt 0.907573 0.546024
vt 0.907573 0.784314
vt 0.779280 0.784314
vt 0.250930 0.941176
vt 0.250930 0.705882
vt 0.337839 0.941176
vt 0.726848 0.470588
vt 0.744276 0.470588
vt 0.744276 0.941177
vt 0.000000 0.941176
vt 0.000000 0.470588
vt 0.691845 0.470588
vt 0.705913 0.570444
vt 0.705846 0.571047
vt 0.639340 0.764706
vt 0.639340 0.529412
vt 0.640024 0.529412
vt 0.639340 1.000000
vt 0.640688 0.529412
vt 0.640688 1.000000
vt 0.641304 0.529412
vt 0.641304 1.000000
vt 0.641850 0.529412
vt 0.641851 1.000000
vt 0.642305 0.529412
vt 0.642305 1.000000
vt 0.567282 0.941177
vt 0.567282 0.470588
vt 0.567759 0.470588
vt 0.566764 0.941177
vt 0.566764 0.470588
vt 0.566226 0.941177
vt 0.566226 0.470588
vt 0.565688 0.941177
vt 0.565688 0.470588
vt 0.565170 0.941177
vt 0.565170 0.470588
vt 0.564693 0.941177
vt 0.564693 0.470588
vt 0.561156 0.941177
vt 0.561156 0.470588
vt 0.561628 0.470588
vt 0.560596 0.941177
vt 0.560596 0.470588
vt 0.559970 0.941177
vt 0.559970 0.470588
vt 0.559302 0.941177
vt 0.559302 0.470588
vt 0.558617 0.702886
vt 0.558617 0.470588
vt 0.642623 0.941177
vt 0.642623 0.529412
vt 0.642787 0.529412
vt 0.642787 0.941177
vt 0.642922 0.529412
vt 0.643410 0.529412
vt 0.643521 0.529412
vt 0.643522 0.941177
vt 0.643653 0.529412
vt 0.643654 0.941177
vt 0.643785 0.529412
vt 0.643786 0.941177
vt 0.643897 0.529412
vt 0.249927 0.470588
vt 0.249927 0.882353
vt 0.249789 0.882353
vt 0.249789 0.470588
vt 0.249623 0.882353
vt 0.249455 0.882353
vt 0.249455 0.470588
vt 0.249309 0.882353
vt 0.644385 0.941177
vt 0.644385 0.529412
vt 0.644497 0.529412
vt 0.644497 0.941177
vt 0.644629 0.529412
vt 0.644629 0.941177
vt 0.644761 0.529412
vt 0.644761 0.941177
vt 0.644873 0.529412
vt 0.589905 0.706607
vt 0.590534 0.706497
vt 0.590261 0.706851
vt 0.642454 0.529412
vt 0.642305 0.941177
vt 0.589024 0.706791
vt 0.588899 0.706851
vt 0.589120 0.706667
vt 0.250245 0.470588
vt 0.250409 0.470588
vt 0.250409 0.882353
vt 0.250544 0.470588
vt 0.642922 0.941177
vt 0.643034 0.529412
vt 0.643166 0.529412
vt 0.643166 0.941177
vt 0.643298 0.529412
vt 0.643298 0.941177
vt 0.249309 0.470588
vt 0.249171 0.882353
vt 0.249171 0.470588
vt 0.249005 0.882353
vt 0.248837 0.882353
vt 0.248837 0.470588
vt 0.248691 0.882353
vt 0.643897 0.941177
vt 0.644009 0.529412
vt 0.644009 0.941177
vt 0.644141 0.529412
vt 0.644273 0.529412
vt 0.644273 0.941177
vt 0.591216 0.706427
vt 0.590586 0.706126
vt 0.590943 0.705882
vt 0.250076 0.470588
vt 0.250245 0.882353
vt 0.589705 0.706752
vt 0.589580 0.706837
vt 0.589444 0.706851
vt 0.587662 0.705882
vt 0.587662 0.711765
vt 0.587249 0.711765
vt 0.581606 0.470588
vt 0.586835 0.470588
vt 0.586835 0.882353
vt 0.588076 0.705882
vt 0.243447 0.882353
vt 0.238202 0.882353
vt 0.238202 0.470588
vt 0.645287 0.941177
vt 0.645287 0.529412
vt 0.645701 0.529412
vt 0.646529 0.529412
vt 0.646529 0.941177
vt 0.646115 0.941177
vt 0.587249 0.705882
vt 0.586835 0.711765
vt 0.576378 0.470588
vt 0.581606 0.882353
vt 0.588490 0.705882
vt 0.588490 0.711765
vt 0.588076 0.711765
vt 0.243447 0.470588
vt 0.644873 0.941177
vt 0.646115 0.529412
vt 0.645701 0.941177
vt 0.639120 0.705882
vt 0.586835 0.705882
vt 0.586835 0.647059
vt 0.639340 0.470588
vt 0.691845 0.529412
vt 0.639279 0.647059
vt 0.586835 0.588235
vt 0.639340 0.588235
vt 0.586835 0.529412
vt 0.558559 0.941176
vt 0.558559 0.000000
vt 0.279705 0.470588
vt 1.000000 0.000000
vt 1.000000 0.313726
vt 0.779280 0.313725
vt 0.000000 0.000000
vt 0.747777 0.571047
vt 0.779280 0.470588
vt 0.779280 0.717871
vt 0.570040 0.941176
vt 0.570040 0.470588
vt 0.570725 0.470588
vt 0.570725 0.941176
vt 0.571404 0.470588
vt 0.569377 0.941176
vt 0.569377 0.470588
vt 0.571404 0.941176
vt 0.572053 0.470588
vt 0.572053 0.941177
vt 0.572692 0.470588
vt 0.572692 0.941177
vt 0.573367 0.470588
vt 0.573367 0.941177
vt 0.574052 0.470588
vt 0.574052 0.941177
vt 0.574720 0.470588
vt 0.574720 0.941177
vt 0.575346 0.470588
vt 0.575346 0.941177
vt 0.575906 0.470588
vt 0.575906 0.941177
vt 0.561628 0.941176
vt 0.562105 0.470588
vt 0.562105 0.941176
vt 0.562622 0.470588
vt 0.562622 0.941176
vt 0.563160 0.470588
vt 0.563160 0.941176
vt 0.563699 0.470588
vt 0.563699 0.941176
vt 0.564216 0.470588
vt 0.564216 0.941176
vt 0.567759 0.941176
vt 0.568214 0.470588
vt 0.568214 0.941176
vt 0.568760 0.470588
vt 0.568760 0.941176
vt 0.709346 0.574138
vt 0.710029 0.574079
vt 0.709346 0.717871
vt 0.710029 0.568015
vt 0.709346 0.567956
vt 0.709346 0.470588
vt 0.907573 0.313726
vt 0.710686 0.573903
vt 0.711291 0.573617
vt 0.710686 0.568191
vt 0.711821 0.573233
vt 0.711291 0.568477
vt 0.712256 0.572764
vt 0.711821 0.568861
vt 0.712580 0.572230
vt 0.712256 0.569330
vt 0.712580 0.569864
vt 0.712779 0.570444
vt 0.250930 0.470588
vt 0.337839 0.470588
vt 0.726848 0.941177
vt 0.691845 0.717871
vt 0.708663 0.568015
vt 0.708663 0.574079
vt 0.708007 0.568191
vt 0.640024 1.000000
vt 0.707401 0.568477
vt 0.708007 0.573903
vt 0.706871 0.568861
vt 0.707401 0.573617
vt 0.706436 0.569330
vt 0.706871 0.573233
vt 0.706112 0.569864
vt 0.706436 0.572764
vt 0.706112 0.572230
vt 0.705913 0.571650
vt 0.643410 0.941177
vt 0.249623 0.470588
vt 0.590483 0.706667
vt 0.589905 0.706067
vt 0.590001 0.705942
vt 0.589853 0.706237
vt 0.590126 0.705882
vt 0.590261 0.705896
vt 0.590387 0.705982
vt 0.590483 0.706126
vt 0.590534 0.706307
vt 0.589853 0.706427
vt 0.590387 0.706791
vt 0.590001 0.706752
vt 0.590126 0.706837
vt 0.642454 0.941177
vt 0.588490 0.706237
vt 0.588490 0.706427
vt 0.588542 0.706067
vt 0.588638 0.705942
vt 0.588763 0.705882
vt 0.588899 0.705896
vt 0.589024 0.705982
vt 0.589120 0.706126
vt 0.589172 0.706497
vt 0.589172 0.706307
vt 0.588638 0.706752
vt 0.588542 0.706607
vt 0.250544 0.882353
vt 0.588763 0.706837
vt 0.643034 0.941177
vt 0.249005 0.470588
vt 0.248691 0.470588
vt 0.644141 0.941177
vt 0.591164 0.706067
vt 0.591216 0.706237
vt 0.591164 0.706607
vt 0.591068 0.706752
vt 0.590807 0.706851
vt 0.590943 0.706837
vt 0.590586 0.706667
vt 0.590682 0.706791
vt 0.590682 0.705982
vt 0.590807 0.705896
vt 0.591068 0.705942
vt 0.250076 0.882353
vt 0.589445 0.705896
vt 0.589580 0.705882
vt 0.589319 0.705982
vt 0.589705 0.705942
vt 0.589801 0.706067
vt 0.589801 0.706607
vt 0.589223 0.706667
vt 0.589223 0.706126
vt 0.589319 0.706791
vt 0.576378 0.882353
vt 0.639120 0.647059
vt 0.279705 0.000000
vt 0.779280 0.000000
vt 0.744959 0.568015
vt 0.744276 0.567956
vt 0.744276 0.574138
vt 0.744959 0.574079
vt 0.745616 0.568191
vt 0.745616 0.573903
vt 0.746221 0.568477
vt 0.746221 0.573617
vt 0.746751 0.568861
vt 0.746751 0.573233
vt 0.747187 0.569330
vt 0.747187 0.572764
vt 0.747510 0.569864
vt 0.747510 0.572230
vt 0.747709 0.570444
vt 0.747709 0.571650
vt 0.576378 0.941177
vn -1.000000 0.000000 0.000000
vn 0.000000 0.000000 1.000000
vn 0.000000 1.000000 0.000000
vn 0.000000 0.000000 -1.000000
vn 0.000000 -1.000000 0.000000
vn 1.000000 -0.000000 0.000000
vn 0.000000 0.098000 0.995200
vn -0.000000 -0.093300 0.995600
vn 0.000000 0.290300 0.956900
vn 0.000000 0.471400 0.881900
vn 0.000000 0.634400 0.773000
vn 0.000000 0.773000 0.634400
vn 0.000000 0.881900 0.471400
vn 0.000000 0.956900 0.290300
vn 0.000000 0.995200 0.098000
vn 0.000000 0.995200 -0.098000
vn 0.000000 0.956900 -0.290300
vn 0.000000 0.881900 -0.471400
vn 0.000000 0.773000 -0.634400
vn 0.000000 0.634400 -0.773000
vn 0.000000 0.471400 -0.881900
vn 0.000000 0.290300 -0.956900
vn 0.000000 0.098000 -0.995200
vn -0.000000 -0.092200 -0.995700
vn -0.000000 -0.195100 -0.980800
vn -0.000000 -0.555600 -0.831500
vn -0.000000 -0.831500 -0.555600
vn -0.000000 -0.980800 -0.195100
vn -0.000000 -0.980800 0.195100
vn -0.000000 -0.831500 0.555600
vn -0.000000 -0.555600 0.831500
vn -0.000000 -0.195100 0.980800
vn 0.000000 0.195100 0.980800
vn 0.000000 0.555600 0.831500
vn 0.000000 0.831500 0.555600
vn 0.000000 0.980800 0.195100
vn 0.000000 0.980800 -0.195100
vn 0.000000 0.831500 -0.555600
vn 0.000000 0.195100 -0.980800
vn 0.000000 0.555600 -0.831500
vn -1.000000 -0.000700 0.000000
vn -1.000000 -0.000400 0.000000
vn -0.000000 -0.098000 0.995200
vn -0.000000 -0.290300 0.956900
vn -0.000000 -0.290300 -0.956900
vn -0.000000 -0.098000 -0.995200
vn -1.000000 0.000100 0.000000
vn 1.000000 -0.000100 0.000000
vn 1.000000 -0.000400 0.000000
vn -1.000000 0.000400 0.000000
vn -1.000000 0.000200 0.000000
vn 1.000000 0.000100 0.000000
vn -1.000000 -0.000100 0.000000
s off
f 21/1/1 9/2/1 10/3/1
f 1/4/2 21/5/2 23/6/2
f 25/7/3 2/8/3 1/9/3
f 18/10/3 28/11/3 19/12/3
f 27/13/4 29/14/4 20/15/4
f 20/16/5 29/17/5 23/6/5
f 29/18/6 37/19/6 38/20/6
f 28/21/7 18/22/7 17/23/7
f 26/24/8 28/21/8 30/24/8
f 17/23/9 16/25/9 32/26/9
f 15/27/10 33/28/10 32/26/10
f 14/29/11 34/30/11 33/28/11
f 13/31/12 35/32/12 34/30/12
f 12/33/13 36/34/13 35/35/13
f 11/36/14 37/37/14 36/34/14
f 10/38/15 38/39/15 37/37/15
f 9/40/16 39/41/16 38/39/16
f 8/42/17 40/43/17 39/41/17
f 7/44/18 41/45/18 40/43/18
f 6/46/19 42/47/19 41/48/19
f 5/49/20 43/50/20 42/47/20
f 4/51/21 44/52/21 43/50/21
f 4/51/22 3/53/22 45/54/22
f 25/55/23 46/56/23 45/54/23
f 25/55/24 24/56/24 46/56/24
f 47/57/25 48/58/25 50/59/25
f 49/60/26 50/59/26 52/61/26
f 52/62/27 54/63/27 53/64/27
f 53/64/28 54/63/28 56/65/28
f 55/66/29 56/65/29 58/67/29
f 57/68/30 58/67/30 60/69/30
f 59/70/31 60/71/31 62/72/31
f 61/73/32 62/72/32 64/74/32
f 64/74/33 66/75/33 65/76/33
f 65/76/34 66/75/34 68/77/34
f 67/78/35 68/79/35 70/80/35
f 69/81/36 70/80/36 72/82/36
f 71/83/37 72/82/37 74/84/37
f 73/85/38 74/84/38 76/86/38
f 50/87/6 62/88/6 56/89/6
f 78/90/39 48/58/39 47/57/39
f 75/91/40 76/31/40 78/90/40
f 69/92/41 71/93/41 67/94/41
f 80/95/25 82/96/25 81/97/25
f 81/97/26 82/96/26 84/98/26
f 83/99/27 84/61/27 86/100/27
f 86/100/28 88/101/28 87/102/28
f 87/102/29 88/101/29 90/103/29
f 89/104/30 90/103/30 92/62/30
f 91/105/31 92/77/31 94/106/31
f 93/107/32 94/106/32 96/108/32
f 96/108/33 98/109/33 97/110/33
f 97/110/34 98/109/34 100/111/34
f 99/112/35 100/69/35 102/113/35
f 101/114/36 102/113/36 104/115/36
f 104/115/37 106/116/37 105/117/37
f 105/117/38 106/116/38 108/79/38
f 80/118/6 94/119/6 88/120/6
f 110/121/39 80/95/39 79/122/39
f 107/71/40 108/70/40 110/121/40
f 99/123/42 101/124/42 103/125/42
f 116/126/1 112/127/1 111/128/1
f 117/129/4 113/130/4 112/131/4
f 118/127/6 114/126/6 113/132/6
f 115/133/2 111/134/2 114/135/2
f 112/136/5 113/137/5 114/138/5
f 117/139/3 116/140/3 115/141/3
f 124/142/1 120/128/1 119/143/1
f 125/144/4 121/129/4 120/145/4
f 126/146/6 122/147/6 121/148/6
f 123/111/2 119/133/2 122/149/2
f 120/150/5 121/86/5 122/137/5
f 125/151/3 124/141/3 123/152/3
f 133/153/4 129/154/4 128/155/4
f 134/156/6 130/18/6 129/157/6
f 131/158/2 127/155/2 130/159/2
f 128/160/5 129/159/5 130/161/5
f 133/156/3 132/22/3 131/161/3
f 136/56/5 137/162/5 138/12/5
f 135/163/4 138/56/4 140/164/4
f 135/165/6 139/166/6 141/167/6
f 136/164/2 141/17/2 142/168/2
f 149/169/1 138/170/1 137/171/1
f 140/170/3 142/56/3 141/163/3
f 156/172/7 164/173/7 165/174/7
f 143/175/43 165/174/43 166/176/43
f 155/177/9 167/178/9 164/173/9
f 144/179/44 166/176/44 184/180/44
f 146/181/45 183/180/45 182/182/45
f 147/183/46 182/182/46 181/184/46
f 148/185/23 181/184/23 180/186/23
f 157/187/22 180/186/22 179/188/22
f 158/189/21 179/188/21 178/190/21
f 159/191/20 178/190/20 177/192/20
f 160/193/19 177/192/19 176/144/19
f 161/194/18 176/48/18 175/195/18
f 162/196/17 175/195/17 174/197/17
f 163/198/16 174/197/16 173/199/16
f 149/200/15 173/199/15 172/201/15
f 150/202/14 172/201/14 171/203/14
f 151/204/13 171/203/13 170/45/13
f 152/205/12 170/35/12 169/206/12
f 153/207/11 169/206/11 168/208/11
f 154/209/10 168/208/10 167/178/10
f 2/210/1 3/211/1 1/212/1
f 17/213/1 18/214/1 19/215/1
f 21/1/1 10/3/1 20/13/1
f 24/216/3 25/7/3 22/167/3
f 19/215/1 20/13/1 17/213/1
f 21/1/1 3/211/1 4/217/1
f 3/211/1 21/1/1 1/212/1
f 21/1/1 4/217/1 5/218/1
f 20/13/1 16/219/1 17/213/1
f 21/1/1 5/218/1 6/220/1
f 20/13/1 15/221/1 16/219/1
f 21/1/1 6/220/1 7/222/1
f 20/13/1 14/223/1 15/221/1
f 21/1/1 7/222/1 8/224/1
f 20/13/1 13/225/1 14/223/1
f 21/1/1 8/224/1 9/2/1
f 20/13/47 12/226/47 13/225/47
f 22/135/2 1/4/2 23/6/2
f 20/13/1 10/3/1 11/227/1
f 20/13/1 11/227/1 12/226/1
f 28/11/3 26/228/3 27/229/3
f 19/230/4 27/13/4 20/15/4
f 25/7/3 1/9/3 22/167/3
f 21/5/5 20/16/5 23/6/5
f 28/11/3 27/229/3 19/12/3
f 26/214/6 30/214/6 27/215/6
f 46/210/6 24/210/6 22/212/6
f 29/18/6 38/20/6 23/231/6
f 27/215/6 30/214/6 31/232/6
f 45/233/6 46/210/6 22/212/6
f 29/18/6 27/215/6 31/232/6
f 22/212/6 23/231/6 45/233/6
f 29/18/6 31/232/6 32/234/6
f 31/235/7 28/21/7 17/23/7
f 29/18/6 32/234/6 33/236/6
f 23/231/6 44/237/6 45/233/6
f 29/18/6 33/236/6 34/238/6
f 23/231/6 43/239/6 44/237/6
f 29/18/6 34/238/6 35/240/6
f 23/231/6 42/241/6 43/239/6
f 29/18/6 35/240/6 36/242/6
f 23/231/6 41/243/6 42/241/6
f 29/18/6 36/242/6 37/19/6
f 23/231/6 40/244/6 41/243/6
f 16/25/10 15/27/10 32/26/10
f 23/231/6 38/20/6 39/245/6
f 23/231/48 39/245/48 40/244/48
f 31/235/9 17/23/9 32/26/9
f 31/235/7 30/24/7 28/21/7
f 15/27/11 14/29/11 33/28/11
f 14/29/12 13/31/12 34/30/12
f 13/205/13 12/33/13 35/35/13
f 12/33/14 11/36/14 36/34/14
f 11/36/15 10/38/15 37/37/15
f 10/38/16 9/40/16 38/39/16
f 9/40/17 8/42/17 39/41/17
f 8/42/18 7/44/18 40/43/18
f 7/194/19 6/46/19 41/48/19
f 6/46/20 5/49/20 42/47/20
f 5/49/21 4/51/21 43/50/21
f 44/52/22 4/51/22 45/54/22
f 3/53/23 2/162/23 25/55/23
f 49/60/25 47/57/25 50/59/25
f 25/55/23 45/54/23 3/53/23
f 51/99/26 49/60/26 52/61/26
f 51/246/27 52/62/27 53/64/27
f 55/66/28 53/64/28 56/65/28
f 57/68/29 55/66/29 58/67/29
f 59/112/30 57/68/30 60/69/30
f 61/73/31 59/70/31 62/72/31
f 63/247/32 61/73/32 64/74/32
f 63/247/33 64/74/33 65/76/33
f 67/105/34 65/76/34 68/77/34
f 69/81/35 67/78/35 70/80/35
f 71/83/36 69/81/36 72/82/36
f 73/85/37 71/83/37 74/84/37
f 75/150/38 73/85/38 76/86/38
f 62/88/6 60/248/6 56/89/6
f 76/249/6 74/250/6 78/251/6
f 72/252/6 70/253/6 74/250/6
f 70/253/6 68/254/6 62/88/6
f 68/254/6 66/255/6 64/256/6
f 50/87/6 48/257/6 74/250/6
f 60/248/49 58/258/49 56/89/49
f 52/259/6 50/87/6 54/260/6
f 77/261/40 75/91/40 78/90/40
f 70/253/6 50/87/6 74/250/6
f 50/87/6 56/89/6 54/260/6
f 74/250/6 48/257/6 78/251/6
f 77/261/39 78/90/39 47/57/39
f 68/254/6 64/256/6 62/88/6
f 50/87/6 70/253/6 62/88/6
f 49/262/1 71/93/1 47/263/1
f 49/262/50 51/264/50 53/265/50
f 53/265/1 55/266/1 57/267/1
f 57/267/51 59/268/51 61/269/51
f 65/270/1 67/94/1 63/271/1
f 79/122/25 80/95/25 81/97/25
f 75/272/1 77/273/1 47/263/1
f 49/262/1 53/265/1 61/269/1
f 83/274/26 81/97/26 84/98/26
f 53/265/1 57/267/1 61/269/1
f 71/93/1 61/269/1 67/94/1
f 71/93/42 73/275/42 75/272/42
f 71/93/1 49/262/1 61/269/1
f 67/94/1 61/269/1 63/271/1
f 71/93/1 75/272/1 47/263/1
f 85/276/27 83/99/27 86/100/27
f 85/276/28 86/100/28 87/102/28
f 89/104/29 87/102/29 90/103/29
f 91/246/30 89/104/30 92/62/30
f 93/107/31 91/105/31 94/106/31
f 95/277/32 93/107/32 96/108/32
f 95/277/33 96/108/33 97/110/33
f 99/278/34 97/110/34 100/111/34
f 101/114/35 99/112/35 102/113/35
f 103/279/36 101/114/36 104/115/36
f 103/279/37 104/115/37 105/117/37
f 107/78/38 105/117/38 108/79/38
f 84/280/6 82/281/6 80/118/6
f 80/118/6 110/282/6 108/283/6
f 104/284/48 80/118/48 106/285/48
f 100/286/6 94/119/6 102/287/6
f 100/286/6 98/88/6 96/256/6
f 94/119/6 80/118/6 102/287/6
f 92/288/49 90/289/49 88/120/49
f 88/120/6 86/290/6 84/280/6
f 94/119/6 92/288/6 88/120/6
f 100/286/6 96/256/6 94/119/6
f 109/291/40 107/71/40 110/121/40
f 84/280/6 80/118/6 88/120/6
f 80/118/52 104/284/52 102/287/52
f 80/118/52 108/283/52 106/285/52
f 109/291/39 110/121/39 79/122/39
f 79/271/53 85/292/53 87/293/53
f 85/292/47 79/271/47 83/294/47
f 89/295/47 79/271/47 87/293/47
f 89/295/51 91/296/51 93/251/51
f 97/297/1 99/123/1 95/257/1
f 107/298/1 109/270/1 79/271/1
f 116/145/4 117/129/4 112/131/4
f 79/271/1 81/299/1 83/294/1
f 115/142/1 116/126/1 111/128/1
f 93/251/1 79/271/1 89/295/1
f 79/271/1 93/251/1 103/125/1
f 103/125/1 107/298/1 79/271/1
f 99/123/1 93/251/1 95/257/1
f 93/251/1 99/123/1 103/125/1
f 103/125/1 105/300/1 107/298/1
f 117/148/6 118/127/6 113/132/6
f 118/149/2 115/133/2 114/135/2
f 111/152/5 112/136/5 114/138/5
f 118/151/3 117/139/3 115/141/3
f 123/154/1 124/142/1 119/143/1
f 124/301/4 125/144/4 120/145/4
f 125/132/6 126/146/6 121/148/6
f 126/278/2 123/111/2 122/149/2
f 119/136/5 120/150/5 122/137/5
f 126/138/3 125/151/3 123/152/3
f 132/302/4 133/153/4 128/155/4
f 133/22/6 134/156/6 129/157/6
f 134/160/2 131/158/2 130/159/2
f 127/22/5 128/160/5 130/161/5
f 134/130/3 133/156/3 131/161/3
f 135/229/5 136/56/5 138/12/5
f 139/303/4 135/163/4 140/164/4
f 136/304/6 135/165/6 141/167/6
f 137/303/2 136/164/2 142/168/2
f 156/305/1 143/306/1 138/170/1
f 137/171/1 148/307/1 157/308/1
f 155/309/1 156/305/1 138/170/1
f 137/171/1 157/308/1 158/310/1
f 154/311/1 155/309/1 138/170/1
f 137/171/1 158/310/1 159/312/1
f 153/313/47 154/311/47 138/170/47
f 137/171/1 159/312/1 160/314/1
f 152/315/1 153/313/1 138/170/1
f 137/171/1 160/314/1 161/316/1
f 151/317/47 152/315/47 138/170/47
f 137/171/1 161/316/1 162/318/1
f 150/319/53 151/317/53 138/170/53
f 137/171/53 162/318/53 163/320/53
f 149/169/1 150/319/1 138/170/1
f 163/320/1 149/169/1 137/171/1
f 143/175/7 156/172/7 165/174/7
f 139/304/3 140/170/3 141/163/3
f 144/179/43 143/175/43 166/176/43
f 156/172/9 155/177/9 164/173/9
f 145/181/44 144/179/44 184/180/44
f 147/183/45 146/181/45 182/182/45
f 148/185/46 147/183/46 181/184/46
f 157/187/23 148/185/23 180/186/23
f 158/189/22 157/187/22 179/188/22
f 159/191/21 158/189/21 178/190/21
f 160/193/20 159/191/20 177/192/20
f 161/321/19 160/193/19 176/144/19
f 162/196/18 161/194/18 175/195/18
f 163/198/17 162/196/17 174/197/17
f 149/200/16 163/198/16 173/199/16
f 150/202/15 149/200/15 172/201/15
f 151/204/14 150/202/14 171/203/14
f 152/44/13 151/204/13 170/45/13
f 153/207/12 152/205/12 169/206/12
f 154/209/11 153/207/11 168/208/11
f 155/177/10 154/209/10 167/178/10
